<?xml version="1.0" encoding="UTF-8"?>
<svg width="102px" height="26px" viewBox="0 0 102 26" version="1.1" xmlns="http://www.w3.org/2000/svg" xmlns:xlink="http://www.w3.org/1999/xlink">
    <!-- Generator: Sketch 57.1 (83088) - https://sketch.com -->
    <title>quality_4KHDR-red</title>
    <desc>Created with Sketch.</desc>
    <g id="quality_4KHDR-red" stroke="none" stroke-width="1" fill="none" fill-rule="evenodd">
        <path d="M11,24 L11,18.944 L0,18.944 L0,15.712 L11,2 L15,2 L15,15.424 L18,15.424 L18,18.944 L15,18.944 L15,24 L11,24 Z M4.34418048,15.424 L10.9802356,15.424 L10.9802356,7.136 L4.34418048,15.424 Z M21,24 L21,2 L24.9848993,2 L24.9848993,10.752 L34.2298658,2 L39.4580537,2 L28.9060403,12.384 L40,24 L34.3573826,24 L24.9848993,14.528 L24.9848993,24 L21,24 Z" id="4K" fill="#E50913" fill-rule="nonzero"/>
        <g id="Group" transform="translate(48.000000, 1.000000)" fill="#E50914" fill-rule="nonzero">
            <path d="M42,0 C48.627417,0 54,5.372583 54,12 C54,18.627417 48.627417,24 42,24 L12,24 C5.372583,24 0,18.627417 0,12 C0,5.372583 5.372583,0 12,0 L42,0 Z M42,1 L12,1 C5.92486775,1 1,5.92486775 1,12 C1,17.9787016 5.76976358,22.8433652 11.7115925,22.9962926 L12,23 L42,23 C48.0751322,23 53,18.0751322 53,12 C53,6.02129842 48.2302364,1.15663482 42.2884075,1.0037074 L42,1 Z" id="Rectangle"/>
            <path d="M12,17 L12,7 L14,7 L14,11 L19,11 L19,7 L21,7 L21,17 L19,17 L19,13 L14,13 L14,17 L12,17 Z M23,17 L23,7 L26.7787356,7 C27.7749092,7 28.6489426,7.20593664 29.4008621,7.61781609 C30.1527815,8.02969555 30.7418561,8.60919167 31.1681034,9.35632184 C31.5943508,10.103452 31.8635254,10.9846693 31.8635254,12 C31.8635254,13.0153307 31.5943508,13.896548 31.1681034,14.6436782 C30.7418561,15.3908083 30.1527815,15.9703045 29.4008621,16.3821839 C28.6489426,16.7940634 27.7749092,17 26.7787356,17 L23,17 Z M25,15 L26.6637931,15 C27.276823,15 27.8203999,14.8820972 28.2945402,14.6462882 C28.7686805,14.4104792 29.14224,14.0698712 29.4152299,13.6244541 C29.6882198,13.1790371 29.8247126,12.6375578 29.8247126,12 C29.8247126,11.3624422 29.6882198,10.8209629 29.4152299,10.3755459 C29.14224,9.93012878 28.7686805,9.58952083 28.2945402,9.35371179 C27.8203999,9.11790275 27.276823,9 26.6637931,9 L25,9 L25,15 Z M34,17 L34,7 L38.0804598,7 C39.3065195,7 40.2619698,7.29214267 40.9468391,7.87643678 C41.6317084,8.46073089 41.9741379,9.42472487 41.9741379,10.4208984 C41.9741379,11.8741138 41.4072266,13.0092285 39.9862305,13.5333008 L42.4195402,17 L39.7337402,17 L37.9511494,14 L36,14 L36,17 L34,17 Z M36,12 L37.9300781,12 C38.6772083,12 39.2255745,11.8698643 39.5751931,11.609589 C39.9248117,11.3493138 40.0996184,10.968039 40.0996184,10.4657534 C40.0996184,9.96346781 39.9248117,9.59360849 39.5751931,9.35616438 C39.2255745,9.11872027 38.6772083,9 37.9300781,9 L36,9 L36,12 Z" id="HDR"/>
        </g>
    </g>
</svg>